<?xml version="1.0" encoding="utf-8"?>
<!-- Generator: Adobe Illustrator 28.0.0, SVG Export Plug-In . SVG Version: 6.00 Build 0)  -->
<svg version="1.1" id="Layer_2" xmlns="http://www.w3.org/2000/svg" xmlns:xlink="http://www.w3.org/1999/xlink" x="0px" y="0px"
	 viewBox="0 0 800 800" style="enable-background:new 0 0 800 800;" xml:space="preserve">
<style type="text/css">
	.st0{fill:#68A9FF;}
</style>
<g>
	<path class="st0" d="M620.7,290c-5.7-5.7-13.3-8.8-21.3-8.8h-24.7c0,0,0,0,0,0H343.5c-4.9,0-8.8,3.9-8.8,8.8c0,4.9,3.9,8.8,8.8,8.8
		h219.6L519,451.5H330.4c-5.5,0-10.3-3.5-11.9-8.7l-89.3-256.3c-4.1-12.4-15.6-20.7-28.6-20.7c0,0-0.1,0-0.1,0
		c-13.2,0-24.7,8.4-28.7,21c-1.5,4.6,1.1,9.6,5.8,11c4.6,1.5,9.6-1.1,11-5.8c1.6-5.2,6.4-8.7,11.9-8.7c0,0,0,0,0.1,0
		c5.5,0,10.3,3.5,12,8.7l89.3,256.3c0.9,2.7,2.2,5.3,3.7,7.5c-17.1,7.8-29.1,25-29.1,45c0.1,27.1,22.2,49.3,49.4,49.4h203.3
		c4.9,0,8.8-3.9,8.8-8.8s-3.9-8.8-8.8-8.8H325.8c-17.5-0.1-31.8-14.3-31.8-31.8c0.1-17.5,14.3-31.8,31.8-31.8h4.7h195.2c0,0,0,0,0,0
		c0,0,0,0,0.1,0h28.1h7.5c0,0,0,0,0,0c13.6,0,25.6-9.2,29.1-22.3l38.1-127.4l0.1-0.3c0.7-2.5,1-5.1,1-7.7
		C629.6,303.3,626.4,295.7,620.7,290z M611.6,314.5l-38.1,127.4l-0.1,0.3c-1.5,5.5-6.5,9.3-12.1,9.3h0h-7.5h-16.5l44.2-152.7h18
		c3.4,0,6.5,1.3,8.9,3.7c2.4,2.4,3.7,5.5,3.7,8.9C612,312.4,611.8,313.5,611.6,314.5z"/>
	<path class="st0" d="M356.4,559.4c-20.6,0-37.4,16.8-37.4,37.4s16.8,37.4,37.4,37.4s37.4-16.8,37.4-37.4S377.1,559.4,356.4,559.4z
		 M356.4,616.6c-10.9,0-19.8-8.9-19.8-19.8c0-10.9,8.9-19.8,19.8-19.8s19.8,8.9,19.8,19.8C376.2,607.7,367.4,616.6,356.4,616.6z"/>
	<path class="st0" d="M499.5,559.4c-20.6,0-37.4,16.8-37.4,37.4s16.8,37.4,37.4,37.4s37.4-16.8,37.4-37.4S520.1,559.4,499.5,559.4z
		 M499.5,616.6c-10.9,0-19.8-8.9-19.8-19.8c0-10.9,8.9-19.8,19.8-19.8c10.9,0,19.8,8.9,19.8,19.8
		C519.3,607.7,510.4,616.6,499.5,616.6z"/>
</g>
</svg>
