<?xml version="1.0" encoding="utf-8"?>
<!-- Generator: Adobe Illustrator 28.0.0, SVG Export Plug-In . SVG Version: 6.00 Build 0)  -->
<svg version="1.1" id="Layer_1" xmlns="http://www.w3.org/2000/svg" xmlns:xlink="http://www.w3.org/1999/xlink" x="0px" y="0px"
	 viewBox="0 0 800 800" style="enable-background:new 0 0 800 800;" xml:space="preserve">
<style type="text/css">
	.st0{fill:#68A9FF;}
</style>
<g>
	<path class="st0" d="M721.3,543.6c-12.5-12.5,1.1,20-11.5,32.5l-61.5,61.5l-81.4-81.4l112.6-112.6c10.4-8.8,6.2-16,6.2-16
		s-8.9-11.8-21.5,0.7l-4.7,4.7L354.8,128.3c-46.5-46.5-123.2-55.9-179.1,0L155,149L63.8,57.8C51.3,45.3,37.7,40.7,33,45.1
		c-4.8,4.4,0.7,17.8,13.2,30.4l91.1,91.1l-19.9,19.9c-50.3,50.3-50.3,130.3,0,180.6l304,304l-3.9,3.9c-12.5,12.5-1.3,18.1-1.3,18.1
		s10.4,3.5,16.6-2.8l115.7-115.7l81.4,81.4l-64.7,64.7c-12.5,12.5-45-1.1-32.5,11.5c17.4,17.4,37.8,7.1,44,0l144.5-144.5
		C734,575,734,556.1,721.3,543.6z M133.2,201.9l62.9-62.9c42-38,87-34,132-5.9l315.2,316.8L436.8,654L388,605.2l50.6-50.3
		c13.6-13.6,23.7-26.5,15.9-34.1c-8.9-10.2-21.7,1.1-35.2,14.7l-50.6,50.3l-85.1-85.1l51.4-51.1c13.6-13.6,21.6-24.7,13.1-33.8
		c-7.8-5.2-21.6-1.8-35.1,11.8l-51.4,51.1l-84.3-84.3l50.6-50.3c13.6-13.6,20.1-27.6,10.5-36.7c-9.3-8.7-23.2-3-36.7,10.6
		l-50.6,50.3l-29.4-29.4C96.5,313.7,85.2,239.8,133.2,201.9z"/>
</g>
</svg>
