<?xml version="1.0" encoding="utf-8"?>
<!-- Generator: Adobe Illustrator 28.0.0, SVG Export Plug-In . SVG Version: 6.00 Build 0)  -->
<svg version="1.1" id="Capa_1" xmlns="http://www.w3.org/2000/svg" xmlns:xlink="http://www.w3.org/1999/xlink" x="0px" y="0px"
	 viewBox="0 0 800 800" style="enable-background:new 0 0 800 800;" xml:space="preserve">
<style type="text/css">
	.st0{fill:#68A9FF;}
</style>
<g>
	<path class="st0" d="M160.7,193.2c0.6,0,56.4-3.5,79.4,14.1c0.1,0.1,0.2,0.1,0.2,0.2c16.4,13.6,37.5,21.9,60.4,21.9
		c22.3,0,43.2-7.9,59.6-21.2c0.1-0.1,0.3-0.2,0.4-0.3c25.6-18.8,87.3-14.7,88-14.7c3.6,0.2,6.7-2.2,7.3-5.8
		c10-59.1-12.5-110-65.1-147.2C352.4,13,311.7,2.7,308.8,2c-3.7-1-10.7-2.1-15.1-2.1C280,0,271,6.4,264.5,13.1
		c-4.3-1.5-8.7-2.2-13.3-2.2c-10.8,0-21,4.1-28.7,11.6c-2.5,2.1-23.7,20.6-42.7,49c-26.5,39.8-35.6,80.1-26.2,116.5
		C154.4,191.3,157.4,193.5,160.7,193.2z M220,134.8c0-22.2,9.1-43.2,25-58.4c24.2,23.2,74.6,65.5,133.4,80.5
		c-9.8,34.3-41.5,58.6-77.6,58.6C256.3,215.5,220,179.3,220,134.8z M231.6,32.9c0.1-0.1,0.3-0.2,0.4-0.4c5.1-5.1,12-7.8,19.2-7.8
		c4.2,0,8.3,1,12.1,2.8c2.9,1.4,6.3,0.6,8.4-1.7l0,0c7.2-8.5,13.6-12,22.1-12c2.9,0,8.6,0.8,11.6,1.6c0.1,0,0.1,0,0.2,0.1
		c0.4,0.1,40.5,10,77.5,36.1c46.8,33.1,67.1,76,60.4,127.5c-12-0.4-38.6-0.5-62.1,5.3c4.7-7.5,8.3-15.8,10.7-24.6
		c8,1.4,16,2.3,24.2,2.5c0.1,0,0.1,0,0.2,0c3.7,0,6.8-3,6.9-6.7c0.1-3.8-2.9-7-6.7-7.1c-91.2-2.4-175.5-95.9-176.4-96.9
		c-2.5-2.9-6.9-3.1-9.8-0.6c-2.9,2.5-3.1,6.9-0.6,9.8c0.5,0.5,2.3,2.6,5.4,5.8c-18.5,17.8-29,42.3-29,68.1c0,18,5.1,34.8,13.8,49.2
		c-20.8-5-43.7-5.1-54.3-4.8C150.5,102.3,230.8,33.6,231.6,32.9z"/>
	<path class="st0" d="M225.3,273.2l-118,121.3c-15.6,16.1-15.3,41.9,0.8,57.5c3,2.9,6.3,5.2,9.8,7H29.4c-14.6,0-26.5,11.9-26.5,26.5
		v288c0,14.6,11.9,26.5,26.5,26.5h741.2c14.6,0,26.5-11.9,26.5-26.5v-288c0-14.6-11.9-26.5-26.5-26.5h-67.7
		c13.8-10.5,22.8-27.1,22.8-45.8v-8.4c5.2,2.4,10.4,3.6,15.2,3.6c4.9,0,9.5-1.2,13.5-3.7c8.7-5.3,13.4-15.4,13.2-28.4
		c-0.1-11.7-4.2-24.8-11.5-36.7c-14.9-24.4-38.5-36.8-55.3-29.8c-10.3-7.1-22.6-11.2-35.6-11.2c-13.1,0-25.3,4.1-35.6,11.2
		c-16.9-7-40.4,5.4-55.3,29.8c-1.1,1.9-2.2,3.7-3.2,5.6c-23.1,1.7-42.5,17.2-49.9,38.2L488.6,420c-2.5,2.9-2.3,7.2,0.6,9.8
		c1.3,1.2,3,1.8,4.6,1.8c1.9,0,3.8-0.8,5.2-2.3l18.9-21.2v5.2c0,18.7,8.9,35.3,22.8,45.8h-90.9l-32-109l77.2,14.6
		c2.7,0.5,5.5,0.8,8.2,0.8c8.6,0,17.1-2.6,24.4-7.6c9.6-6.5,16.1-16.4,18.2-27.8c2.2-11.4-0.2-22.9-6.8-32.5
		c-6.5-9.6-16.4-16.1-27.8-18.2l-183-34.6c-7.7-1.6-15.7-2.5-23.9-2.5C273.8,242.2,244.8,254.4,225.3,273.2z M744.3,346.9
		c6,9.8,9.4,20.3,9.4,29.6c0,4.6-0.8,12.9-6.6,16.5c-4.2,2.6-10.4,2-17.2-1.4c1.6-6.2,2.4-12.8,2.4-19.5c0-19.2-6.8-36.7-17.9-49.8
		C723.7,324.1,735.5,332.5,744.3,346.9z M718.5,372c0,32.8-24,59.5-53.4,59.5s-53.4-26.7-53.4-59.5s24-59.5,53.4-59.5
		C694.6,312.5,718.5,339.2,718.5,372z M586,346.9c8.8-14.4,20.6-22.8,29.8-24.7c-11.1,13.1-17.9,30.6-17.9,49.8
		c0,6.8,0.9,13.3,2.4,19.5c-6.7,3.4-13,4-17.2,1.4c-5.9-3.6-6.7-11.8-6.6-16.5C576.6,367.2,580,356.7,586,346.9z M531.6,413.2v-10.5
		c0-20.6,14.3-37.8,33.4-42.5c-1.5,5.5-2.4,10.9-2.4,16.1c-0.1,13,4.6,23.1,13.2,28.4c4,2.5,8.6,3.7,13.5,3.7s10.2-1.3,15.5-3.8
		c11,24.1,33.9,40.7,60.2,40.7c17,0,32.6-6.9,44.4-18.3c-5.8,17.3-22.2,29.8-41.4,29.8h-92.8C551.2,456.9,531.6,437.3,531.6,413.2z
		 M215.4,315c4.2-14.8,13.6-27.9,26.3-37.9v68.6c-20.9,3.3-37,21.5-37,43.3v49.9c0,3.8,3.1,6.9,6.9,6.9H229c3.8,0,6.9-3.1,6.9-6.9
		s-3.1-6.9-6.9-6.9h-10.5v-43c0-16.6,13.5-30,30-30s30,13.5,30,30v43H268c-3.8,0-6.9,3.1-6.9,6.9s3.1,6.9,6.9,6.9h17.4
		c3.8,0,6.9-3.1,6.9-6.9V389c0-21.8-16-40-37-43.3v-77.6c1-0.5,2-1,3-1.5l40.1,69.4c1.2,2.1,3.5,3.5,6,3.5s4.8-1.3,6-3.5l39.9-69.1
		c2.4,1.2,4.7,2.5,6.9,3.8c-0.1,0.5-0.2,1.1-0.2,1.7v110.1c-12.5,3.1-21.7,14.4-21.7,27.8c0,15.8,12.9,28.7,28.7,28.7
		c15.8,0,28.7-12.9,28.7-28.7c0-13.4-9.3-24.7-21.7-27.8V280.9c10.5,9.5,18.2,21.1,22,34.2L435.2,459h-262L215.4,315z M364.1,395.5
		c8.2,0,14.8,6.6,14.8,14.8c0,8.2-6.6,14.8-14.8,14.8c-8.2,0-14.8-6.6-14.8-14.8C349.3,402.2,356,395.5,364.1,395.5z M508.5,292.9
		c7.8,1.5,14.5,5.9,18.9,12.4s6.1,14.4,4.6,22.2c-1.5,7.8-5.9,14.5-12.4,18.9s-14.4,6.1-22.2,4.6l-84.2-15.9l-7-23.8
		c-4.8-16.7-15.1-31.6-29-43.1L508.5,292.9z M337.6,261.6l-33,57.1l-33.1-57.4c10.3-3.4,21.3-5.6,32.7-5.2
		C316.9,256.5,337.6,261.6,337.6,261.6z M117.2,404.1l82.6-84.9l-32.4,110.5l-11.7,11.9c-10.3,10.6-27.3,10.8-37.9,0.5
		C107.1,431.8,106.8,414.7,117.2,404.1z M159.5,456.3l-0.8,2.7H155C156.5,458.2,158.1,457.3,159.5,456.3z M770.6,786.1H29.4
		c-7,0-12.6-5.7-12.6-12.6V575H268c3.8,0,6.9-3.1,6.9-6.9s-3.1-6.9-6.9-6.9H16.7v-33.4h710.9c3.8,0,6.9-3.1,6.9-6.9
		s-3.1-6.9-6.9-6.9H16.7v-28.4c0-7,5.7-12.6,12.6-12.6h741.2c7,0,12.6,5.7,12.6,12.6v202.8h-87.6c-3.8,0-6.9,3.1-6.9,6.9
		s3.1,6.9,6.9,6.9h87.6v28.5H569.6c-3.8,0-6.9,3.1-6.9,6.9s3.1,6.9,6.9,6.9h213.7v28.9C783.3,780.5,777.6,786.1,770.6,786.1z"/>
</g>
</svg>
