<?xml version="1.0" encoding="UTF-8"?>
<svg id="Background_Complete" data-name="Background Complete" xmlns="http://www.w3.org/2000/svg" viewBox="0 0 485.81 485.81">
  <defs>
    <style>
      .cls-1 {
        fill: #ff9292;
      }

      .cls-1, .cls-2, .cls-3, .cls-4 {
        stroke-width: 0px;
      }

      .cls-2 {
        fill: #3d5a98;
      }

      .cls-3 {
        fill: #dbf9fd;
      }

      .cls-4 {
        fill: #68a9ff;
      }
    </style>
  </defs>
  <circle class="cls-2" cx="242.91" cy="242.91" r="242.91"/>
  <g>
    <g>
      <path class="cls-4" d="m363.93,303.16c-.32,8.97-2.6,17.44-6.53,25.49-6.12,12.53-17.27,19.01-30.75,22.3-12.44,3.04-24.71,1.92-36.71-2.31-11.09-3.9-14.36-5.66-25.88-8.34-3.46-.8-6.34-1.94-10.37-1.94,0,0,49.87-72.68,22.97-103.31-23.6-26.87-32.48,17.35-34.07,24.72-.05.25-.41.26-.47,0-1.68-7.44-10.28-51.44-34.05-24.73-26.86,30.17,22.97,103.31,22.97,103.31-4.56,0-8.1,1.19-12.62,2.24-8.63,1.99-17.16,4.4-25.63,6.93-11.54,3.44-23.16,4.33-34.92,1.45-18.94-4.64-30.9-15.77-35.29-34.29-4.86-20.54.31-38.62,14.27-54.39,7.02-7.93,15.04-15.06,22.62-22.54,3.43-3.38,6.91-6.71,10.32-10.11,6.19-6.17,9.58-13.83,12.49-21.73,1.68-4.58,3.36-9.17,5.09-13.73,8.08-21.29,25.94-31.94,52.06-33.75,1.97-.14,3.96-.15,5.93-.04,28.03,1.63,46.36,12.78,54.25,34.09,1.67,4.51,3.35,9.03,4.67,13.63,3.36,11.67,9.62,21.6,18.56,30.19,8.21,7.89,16.26,15.96,23.87,24.37,8.49,9.37,14.39,20.14,16.29,32.59.5,3.27.62,6.6.91,9.9Z"/>
      <path class="cls-3" d="m351.84,110.23c-11.24,16.68-23.51,29.27-39.56,36.7-4.24,1.96-8.83,3.33-13.24,3.93-13.64,1.86-22.41-6.32-22.74-20.68-.22-9.79,2.63-19.23,7.12-28.32,9.07-18.38,21.9-33.13,38.95-43.56,6.23-3.81,12.76-6.42,19.62-7.14,13.21-1.38,21.85,6.52,22.31,20.4.32,9.62-2.46,18.89-6.72,27.91-1.98,4.2-4.38,8.22-5.75,10.75Z"/>
      <g>
        <path class="cls-1" d="m95.28,360.64c7.57-1.12,14.52-1.07,20.84.14,6.32,1.21,11.45,3.41,15.39,6.6,3.94,3.19,6.32,7.15,7.16,11.86.42,2.48.28,4.97-.4,7.49-.69,2.51-1.95,5.02-3.8,7.53-1.85,2.51-4.61,4.87-8.27,7.07-3.67,2.2-8.04,4.08-13.1,5.63v7.81c0,2.42-.82,4.48-2.46,6.18-1.64,1.71-3.62,2.56-5.95,2.56s-4.31-.85-5.95-2.56c-1.64-1.7-2.46-3.77-2.46-6.18v-36.83c-2.03,0-3.82-.71-5.37-2.14-1.55-1.43-2.47-3.19-2.77-5.3-.3-2.42.24-4.59,1.61-6.51,1.37-1.92,3.22-3.04,5.55-3.35Zm17.8,27.99c2.09-.87,3.86-1.78,5.32-2.74,1.46-.96,2.43-1.74,2.91-2.33.48-.59.74-1.07.8-1.44-.12-.31-.49-.71-1.12-1.21-.63-.5-1.65-1.02-3.09-1.58-1.43-.56-3.04-1.02-4.83-1.4v10.7Z"/>
        <path class="cls-1" d="m172.03,404.82c2.33-.19,4.37.5,6.13,2.05,1.76,1.55,2.73,3.53,2.91,5.95.12,1.55-.15,3.02-.81,4.42-.66,1.39-1.6,2.54-2.82,3.44-1.22.9-2.58,1.41-4.07,1.54-6.32.5-11.54.74-15.65.74-5.61,0-9.48-.56-11.63-1.67-2.15-1.12-3.77-3.58-4.88-7.39-1.1-3.81-1.71-7.98-1.83-12.51-.12-4.53-.06-9.05.18-13.58.24-4.53.54-8.23.89-11.11.36-2.88.57-4.42.63-4.6.24-.68.46-1.22.67-1.63.21-.4.63-.99,1.25-1.77.63-.77,1.33-1.41,2.1-1.91.77-.5,1.91-1.05,3.4-1.67,1.49-.62,3.19-1.1,5.1-1.44,1.91-.34,4.31-.63,7.2-.88,2.89-.25,6.1-.34,9.62-.28,2.27.06,4.22.95,5.86,2.65,1.64,1.71,2.43,3.77,2.37,6.18,0,1.18-.22,2.31-.67,3.39-.45,1.08-1.06,2-1.83,2.74-.78.74-1.69,1.35-2.73,1.81-1.04.46-2.13.7-3.26.7-5.37-.06-9.9.22-13.6.84-.06.81-.12,1.89-.18,3.26h15.74c2.33,0,4.31.85,5.95,2.56,1.64,1.71,2.46,3.77,2.46,6.18s-.82,4.46-2.46,6.14c-1.64,1.67-3.62,2.51-5.95,2.51h-15.92c.06,1.67.15,3.01.27,4,4.29.06,9.48-.15,15.56-.65Z"/>
        <path class="cls-1" d="m214.6,362.51c2.33-.12,4.34.64,6.04,2.28,1.7,1.64,2.58,3.71,2.64,6.18.06,2.36-.7,4.42-2.28,6.18-1.58,1.77-3.53,2.68-5.86,2.74l-5.1.19v35.43c0,2.42-.82,4.48-2.46,6.18-1.64,1.71-3.61,2.56-5.9,2.56s-4.26-.85-5.9-2.56c-1.64-1.7-2.46-3.77-2.46-6.18v-34.78l-3.85.09h-.27c-1.49,0-2.88-.37-4.16-1.12-1.28-.74-2.3-1.77-3.04-3.07s-1.15-2.73-1.21-4.28c-.06-2.36.7-4.42,2.28-6.18,1.58-1.77,3.53-2.68,5.86-2.74l25.67-.93Z"/>
        <path class="cls-1" d="m252.09,404.91c2.15-.81,4.26-.7,6.35.33,2.09,1.02,3.55,2.68,4.38,4.98.48,1.55.59,3.05.36,4.51-.24,1.46-.85,2.79-1.83,4-.98,1.21-2.19,2.09-3.62,2.65-4.35,1.61-8.53,2.42-12.52,2.42-7.75,0-14.04-2.91-18.88-8.74-3.88-4.59-6.08-10.2-6.62-16.83-.54-6.63.72-12.86,3.76-18.69,2.92-5.7,7.11-9.92,12.57-12.65,5.46-2.73,11.52-3.63,18.2-2.7,2.33.31,4.19,1.41,5.59,3.3,1.4,1.89,1.97,4.03,1.7,6.42-.27,2.39-1.33,4.32-3.17,5.81-1.85,1.49-3.91,2.08-6.17,1.77-6.68-.93-11.33,1.18-13.95,6.32-1.31,2.6-1.89,5.44-1.74,8.51.15,3.07,1,5.53,2.55,7.39,2.56,3.1,6.92,3.5,13.06,1.21Z"/>
        <path class="cls-1" d="m299.76,368.64c1.85,1.99,3.44,4.43,4.79,7.35,1.34,2.92,2.34,5.95,3,9.11.66,3.16,1.19,6.23,1.61,9.21.42,2.98.64,5.97.67,8.97.03,3.01.03,5.35,0,7.02-.03,1.67-.11,3.19-.22,4.56-.18,2.36-1.13,4.33-2.86,5.91s-3.76,2.29-6.08,2.14c-2.33-.15-4.25-1.15-5.77-2.98-1.52-1.83-2.19-3.95-2.01-6.37.12-1.55.18-3.56.18-6.04l-12.08.37c.18,2.48.42,4.78.72,6.88.24,1.61.09,3.13-.45,4.56-.54,1.43-1.39,2.62-2.55,3.58-1.16.96-2.49,1.57-3.98,1.81-.42.06-.87.09-1.34.09-2.03,0-3.83-.68-5.41-2.05-1.58-1.36-2.52-3.13-2.82-5.3-.3-1.8-.57-3.8-.81-6-.24-2.2-.4-5.38-.49-9.53-.09-4.15.03-8.04.36-11.67.33-3.63,1.09-7.41,2.28-11.35,1.19-3.94,2.8-7.14,4.83-9.62,3.7-4.53,8.38-6.84,14.04-6.93,5.67-.09,10.47,2,14.4,6.28Zm-18.7,21.76l10.38-.28c-.96-4.59-2.21-7.72-3.76-9.39-.6-.62-1.28-.93-2.06-.93-.6,0-1.1.25-1.52.74-1.43,1.8-2.45,5.08-3.04,9.86Z"/>
        <path class="cls-1" d="m352.9,407.89c1.85,1.43,2.92,3.33,3.22,5.72.3,2.39-.24,4.54-1.61,6.46-1.67,2.29-3.91,3.44-6.71,3.44-1.85,0-3.52-.59-5.01-1.77l-14.04-10.97v4.28c0,2.42-.81,4.48-2.42,6.18-1.61,1.71-3.58,2.56-5.9,2.56s-4.31-.85-5.95-2.56c-1.64-1.71-2.46-3.77-2.46-6.18v-46.22c.06-.31.09-.62.09-.93.06-.31.12-.59.18-.84.06-.19.15-.46.27-.84.12-.31.21-.56.27-.74.06-.19.18-.43.36-.74.18-.31.33-.56.45-.74.12-.19.3-.4.54-.65.24-.25.42-.43.54-.56.12-.12.33-.31.63-.56.24-.19.45-.34.63-.46.24-.12.48-.25.72-.37.3-.19.57-.31.8-.37.18-.06.42-.15.72-.28.36-.06.66-.12.89-.19.18,0,.27-.03.27-.09,9.84-1.18,18.16-.25,24.96,2.79,6.8,3.04,10.64,7.59,11.54,13.67.18.74.22,1.64.13,2.7-.09,1.06-.24,2.16-.45,3.3-.21,1.15-.69,2.4-1.43,3.77-.75,1.36-1.65,2.67-2.73,3.91-1.07,1.24-2.55,2.53-4.43,3.86-1.88,1.33-4.04,2.56-6.49,3.67l12.43,9.76Zm-24.15-23.9c4.35-1.36,7.51-2.85,9.48-4.46-2.27-1.18-5.43-1.86-9.48-2.05v6.51Z"/>
        <path class="cls-1" d="m390.29,404.82c2.33-.19,4.37.5,6.13,2.05,1.76,1.55,2.73,3.53,2.91,5.95.12,1.55-.15,3.02-.81,4.42-.66,1.39-1.6,2.54-2.82,3.44-1.22.9-2.58,1.41-4.07,1.54-6.32.5-11.54.74-15.65.74-5.61,0-9.48-.56-11.63-1.67-2.15-1.12-3.77-3.58-4.88-7.39-1.1-3.81-1.71-7.98-1.83-12.51-.12-4.53-.06-9.05.18-13.58.24-4.53.54-8.23.89-11.11.36-2.88.57-4.42.63-4.6.24-.68.46-1.22.67-1.63.21-.4.63-.99,1.25-1.77.63-.77,1.33-1.41,2.1-1.91.77-.5,1.91-1.05,3.4-1.67,1.49-.62,3.19-1.1,5.1-1.44,1.91-.34,4.31-.63,7.2-.88,2.89-.25,6.1-.34,9.62-.28,2.27.06,4.22.95,5.86,2.65,1.64,1.71,2.43,3.77,2.37,6.18,0,1.18-.22,2.31-.67,3.39-.45,1.08-1.06,2-1.83,2.74-.78.74-1.69,1.35-2.73,1.81-1.04.46-2.13.7-3.26.7-5.37-.06-9.9.22-13.6.84-.06.81-.12,1.89-.18,3.26h15.74c2.33,0,4.31.85,5.95,2.56,1.64,1.71,2.46,3.77,2.46,6.18s-.82,4.46-2.46,6.14c-1.64,1.67-3.62,2.51-5.95,2.51h-15.92c.06,1.67.15,3.01.27,4,4.29.06,9.48-.15,15.56-.65Z"/>
      </g>
    </g>
    <g>
      <path class="cls-4" d="m399.14,179.96c-1.07,16.55-8.19,32.3-24.6,44.39-5.89,4.33-12.66,7.3-20.53,8.15-11.26,1.22-20.34-2.22-27.28-9.71-6.56-7.09-9.2-15.44-9.41-24.24-.43-17.97,6.37-33.71,21.5-46.44,8.03-6.75,17.57-11.16,29.4-10.6,9.36.44,16.6,4.28,22.03,10.62,6.71,7.83,8.74,16.84,8.89,27.83Z"/>
      <circle class="cls-3" cx="358.22" cy="187.1" r="30.38"/>
      <circle class="cls-4" cx="358.22" cy="187.1" r="17.4"/>
    </g>
    <g>
      <path class="cls-4" d="m85.95,178.25c.2-7.96,1.66-14.79,5.35-21.17,9.14-15.76,28.11-20.39,45.81-11.11,11.38,5.97,18.96,14.68,24.02,24.98,6.65,13.53,8.59,27.4,3.08,41.53-1.13,2.89-2.76,5.72-4.68,8.29-8.59,11.48-23.53,15.22-38.26,9.71-9.91-3.7-17.24-9.92-23.02-17.48-8.27-10.83-12.24-22.76-12.3-34.74Z"/>
      <circle class="cls-3" cx="126.69" cy="187.1" r="30.38"/>
      <circle class="cls-4" cx="126.69" cy="187.1" r="17.4"/>
    </g>
    <path class="cls-3" d="m131.77,107.23c11.24,16.68,23.51,29.27,39.56,36.7,4.24,1.96,8.83,3.33,13.24,3.93,13.64,1.86,22.41-6.32,22.74-20.68.22-9.79-2.63-19.23-7.12-28.32-9.07-18.38-21.9-33.13-38.95-43.56-6.23-3.81-12.76-6.42-19.62-7.14-13.21-1.38-21.85,6.52-22.31,20.4-.32,9.62,2.46,18.89,6.72,27.91,1.98,4.2,4.38,8.22,5.75,10.75Z"/>
  </g>
</svg>