<?xml version="1.0" encoding="utf-8"?>
<!-- Generator: Adobe Illustrator 28.0.0, SVG Export Plug-In . SVG Version: 6.00 Build 0)  -->
<svg version="1.1" id="Capa_1" xmlns="http://www.w3.org/2000/svg" xmlns:xlink="http://www.w3.org/1999/xlink" x="0px" y="0px"
	 viewBox="0 0 800 800" style="enable-background:new 0 0 800 800;" xml:space="preserve">
<style type="text/css">
	.st0{fill:#68A9FF;}
</style>
<g>
	<path class="st0" d="M795.9,87.1c0-16.6-6.5-32.2-18.2-43.9c-24.2-24.2-63.6-24.2-87.9,0L245.7,487.3c-6.8,6.8-9.6,16.3-8.4,25.6
		L8,742.2c-3.2,3.2-4.6,7.8-3.6,12.2c0.9,4.4,4.1,8,8.2,9.7c2.2,0.8,29.2,10.9,65.6,10.9c36.1,0,81.5-9.9,121.2-48.4l94.9-94.9
		c3.1-3.1,4.5-7.7,3.6-12l-7.2-36.2l30.7-30.7l4.7,1.1c3.3,0.8,6.6,1.1,9.8,1.1c11.3,0,22.2-4.4,30.5-12.7l359.8-359.8c0,0,0,0,0,0
		l51.4-51.4C789.4,119.3,795.9,103.7,795.9,87.1z M668.9,202.2l-31.4-69l31.7-31.7l31.4,69L668.9,202.2z M617.1,254l-31.4-69
		l31.7-31.7l31.4,69L617.1,254z M290.9,545.6l-24,24c-3.1,3.1-4.5,7.7-3.6,12l7.2,36.2l-89.7,89.8c-48.3,46.8-107,43.5-137.7,37.3
		l209.3-209.3c0.1,0,0.2,0.1,0.3,0.1c2.4,1.3,5,2.3,7.7,3L290.9,545.6z M347.7,523.4c-4.1,4.1-9.8,5.7-15.4,4.4l-65.9-15.2
		c-0.7-0.2-1.1-0.5-1.5-0.9c-0.3-0.3-0.6-0.5-0.9-1c-0.1-0.3-0.4-0.6-0.5-0.8c-0.3-1-0.3-2.5,1-3.8l301.1-301.1l31.4,69L347.7,523.4
		z M758.8,112.2l-38.2,38.2l-31.4-69L708.7,62c6.9-6.9,16-10.4,25.1-10.4c9.1,0,18.2,3.5,25.1,10.4c6.7,6.7,10.4,15.6,10.4,25.1
		S765.6,105.5,758.8,112.2z"/>
</g>
</svg>
