<?xml version="1.0" encoding="utf-8"?>
<!-- Generator: Adobe Illustrator 28.0.0, SVG Export Plug-In . SVG Version: 6.00 Build 0)  -->
<svg version="1.1" id="_x32_" xmlns="http://www.w3.org/2000/svg" xmlns:xlink="http://www.w3.org/1999/xlink" x="0px" y="0px"
	 viewBox="0 0 800 800" style="enable-background:new 0 0 800 800;" xml:space="preserve">
<style type="text/css">
	.st0{fill:#68A9FF;}
</style>
<g>
	<path class="st0" d="M554,9c-14.6-2.2-29.2-3.3-43.3-3.3c-41.4,0-72.6,9.2-95.5,15.9c-5.5,1.6-10.8,3.2-15.1,4.3
		c-4.3-1.1-9.6-2.6-15.1-4.3c-22.8-6.7-54.1-15.9-95.5-15.9c-14.2,0-28.8,1.1-43.4,3.3C127.7,26.8,60.5,138.4,74.9,293.4
		c7.3,78.2,34,142.6,57.6,199.5c21.7,52.4,42.3,102,46.5,157.3c9.9,130,75,144.1,102.5,144.1c38.1,0,73.7-27.1,88.5-67.5
		c6.8-18.5,8.9-40,11.1-62.9c1.7-18,5.8-60.2,14.6-67.7l0,0c0.2,0,1.7-0.3,4.2-0.3c2.7,0,4.2,0.4,4.6,0.5
		c8.4,7.2,12.5,49.4,14.2,67.4c2.2,22.9,4.3,44.4,11.1,63c14.9,40.3,50.5,67.4,88.6,67.4c27.6,0,92.7-14.1,102.5-144.1
		c4.2-55.4,24.7-104.9,46.5-157.3C691,436,717.7,371.5,725,293.3C739.5,138.4,672.3,26.8,554,9z M698.1,278.3
		C683.9,430.7,632.7,474.9,604,614c-5.9,77.5-36,159.6-74.5,159.5c-18.1,0-63.5-4.5-76.1-43.9c-17.7-48.2,0.5-153.3-53.4-156.6
		c-45.1-2.8-31,112-58,170c-7.7,20.8-33,30.5-71.3,30.5c-23.8,0-63.8-51.1-69.7-128.5c-10.8-140.4-91.8-205.6-106-358
		C81.3,139.9,148.7,43.3,240.3,29.5c14-2.1,26.9-2.9,38.8-2.9c56.9,0,93.3,18.7,120.9,22.1c27.7-3.4,63.9-22.1,120.8-22.1
		c12,0,24.9,0.8,38.8,2.9C651.5,43.3,711.8,131,698.1,278.3z"/>
	<path class="st0" d="M464.2,73.6c-1-3.8-4.9-6-8.7-5c-23.2,6.3-39.4,8.4-55.5,12.5c-16.1-4.1-32.4-6.2-55.5-12.5
		c-3.8-1-7.7,1.2-8.7,5c-1,3.8,1.2,7.7,5,8.7c13,3.5,23.8,5.8,33.4,7.7c-10.6,4.8-22.1,11.6-35.7,21.6c-3.2,2.3-3.9,6.8-1.5,10
		c2.3,3.2,6.8,3.9,10,1.5c22.6-16.4,37.5-22.9,53.2-27.3c15.7,4.4,30.6,10.8,53.2,27.3c3.2,2.3,7.6,1.6,10-1.5
		c2.3-3.2,1.6-7.6-1.5-10c-13.6-10-25.1-16.7-35.8-21.6c9.6-1.9,20.4-4.2,33.4-7.7C463,81.3,465.3,77.4,464.2,73.6z"/>
</g>
</svg>
